<?xml version="1.0" encoding="utf-8"?>
<!-- Generator: Adobe Illustrator 22.0.1, SVG Export Plug-In . SVG Version: 6.00 Build 0)  -->
<svg version="1.1" xmlns="http://www.w3.org/2000/svg" xmlns:xlink="http://www.w3.org/1999/xlink" x="0px" y="0px"
	 viewBox="0 0 151 139.1" style="enable-background:new 0 0 151 139.1;" xml:space="preserve">
<style type="text/css">
	.st0{display:none;}
	.st1{display:inline;}
	.st2{font-family:'Algerian';}
	.st3{font-size:135px;}
	.st4{fill:#FFFFFF;}
</style>
<g id="Layer_2" class="st0">
	<text transform="matrix(1 0 0 1 26.2856 89.8096)" class="st1 st2 st3">A </text>
</g>
<g id="Layer_1">
	<path d="M33,86l8-14l11-27c-0.7-0.8-2-2.1-4-3c-2.6-1.2-4.9-1.1-6-1c0.8-0.4,3.5-1.8,5-5c1.3-2.6,1.1-5,1-6c0.6,1.1,1.5,2.5,3,4
		c0.9,0.9,2.2,2,4,3c4-6.5,8-13.5,12-21c2.9-5.5,5.6-10.8,8-16c2.4,5.5,5,11.2,8,17c3.6,7.2,7.3,13.8,11,20c1.3-0.3,3.7-1.1,6-3
		c2.2-1.8,3.4-3.8,4-5c0,1.4,0.1,3.6,1,6c1.4,3.7,3.8,6,5,7c-1.6-0.5-5-1.3-9,0c-1.7,0.5-3,1.3-4,2l12,33c0.8,1,1.8,2,3,3
		c2.1,1.8,4.2,3.1,6,4H86c0.7-0.5,1.8-1.1,3-2c3-2.1,4.4-3.1,5-4c1.5-2.3-0.1-5.5-2-10c-1.5-3.4-3.6-8.5-6-15c-2,1-4.5,2.6-7,5
		c-2.4,2.3-4.1,4.6-5.3,6.7c-0.7,1.3-2.6,1.2-3.3-0.1c-0.9-1.8-2-3.7-3.4-5.6c-3.1-4.4-6.3-7.7-9-10c-1.2,2-10,17.6-3,30
		c0.9,1.6,2.2,3.3,4,5C48,84.3,44,85.7,33,86z"/>
	<polygon class="st4" points="74,14 62,41 73,59 84,44 	"/>
	<path d="M0,139c2.5-0.8,7-2.6,11-7c1.9-2.1,3.2-4.3,4-6c3.7-9,7.3-18,11-27c-0.7-0.8-2-2.1-4-3c-2.6-1.2-4.9-1.1-6-1
		c0.8-0.4,3.5-1.8,5-5c1.3-2.6,1.1-5,1-6c0.6,1.1,1.5,2.5,3,4c0.9,0.9,2.2,2,4,3c4-6.5,8-13.5,12-21c2.9-5.5,5.6-10.8,8-16
		c2.4,5.5,5,11.2,8,17c3.6,7.2,7.3,13.8,11,20c1.3-0.3,1.7-1.1,4-3c2.2-1.8,1.4-3.8,2-5c0,1.4,0.1,3.6,1,6c1.4,3.7,7.8,6,9,7
		c-1.6-0.5-5-1.3-9,0c-1.7,0.5-3,1.3-4,2l11,34c0.8,1,1.8,2,3,3c2.1,1.8,4.2,3.1,6,4H59c0.7-0.5,1.8-1.1,3-2c3-2.1,4.4-3.1,5-4
		c1.5-2.3,0.9-6.5-1-11c-1.5-3.4-3.6-8.5-6-15c-2,1-4.5,2.6-7,5c-2.4,2.3-4.1,4.6-5.3,6.7c-0.7,1.3-2.6,1.2-3.3-0.1
		c-0.9-1.8-2-3.7-3.4-5.6c-3.1-4.4-6.3-7.7-9-10c-1.2,2-11,18.6-4,31c0.9,1.6,2.2,3.3,4,5C21,139.3,11,138.7,0,139z"/>
	<polygon class="st4" points="48,68 36,95 47,113 58,98 	"/>
	<path d="M147,139c-2.4-1.1-5.7-3-9-6c-2.7-2.5-3.7-6-5-8c-3.7-9-7.3-18-11-27c0.7-0.8,2-2.1,4-3c2.6-1.2,4.9-1.1,6-1
		c-0.8-0.4-3.5-1.8-5-5c-1.3-2.6-1.1-5-1-6c-0.6,1.1-1.5,2.5-3,4c-0.9,0.9-2.2,2-4,3c-4-6.5-8-13.5-12-21c-2.9-5.5-5.6-10.8-8-16
		c-2.4,5.5-5,11.2-8,17c-3.6,7.2-7.3,13.8-11,20c-1.3-0.3-0.7-0.1-3-2c-2.2-1.8-2.4-3.8-3-5c0,1.4-0.1,3.6-1,6c-1.4,3.7-7.8,5-9,6
		c1.6-0.5,5-1.3,9,0c1.7,0.5,3,1.3,4,2l-8,36c-0.8,1-3.8,2-5,3c-2.1,1.8-3.2,2.1-5,3l28-1c-0.7-0.5-1.8-1.1-3-2c-3-2.1-4.4-3.1-5-4
		c-1.5-2.3,1.1-6.5,3-11c1.5-3.4,3.6-8.5,6-15c2,1,4.5,2.6,7,5c2.4,2.3,4.1,4.6,5.3,6.7c0.7,1.3,2.6,1.2,3.3-0.1
		c0.9-1.8,2-3.7,3.4-5.6c3.1-4.4,6.3-7.7,9-10c1.2,2,9,18.6,2,31c-0.9,1.6-3.2,4.3-5,6C124,139.3,136,138.7,147,139z"/>
	<polygon class="st4" points="100,67 112,94 101,112 90,97 	"/>
	<path d="M151,127"/>
</g>
</svg>
